<svg id="Capa_1" enable-background="new 0 0 512 512" height="512" viewBox="0 0 512 512" width="512" xmlns="http://www.w3.org/2000/svg" xmlns:xlink="http://www.w3.org/1999/xlink"><linearGradient id="lg1"><stop offset="0" stop-color="#fff"/><stop offset=".5145" stop-color="#ecf4ff"/><stop offset="1" stop-color="#ddeafb"/></linearGradient><radialGradient id="SVGID_1_" cx="134.016" cy="248.634" gradientTransform="matrix(-1 0 0 -2.063 268.033 761.628)" gradientUnits="userSpaceOnUse" r="189.037" xlink:href="#lg1"/><linearGradient id="lg2"><stop offset="0" stop-color="#fff"/><stop offset=".5145" stop-color="#eaf6df"/><stop offset="1" stop-color="#e2f1d0"/></linearGradient><radialGradient id="SVGID_2_" cx="143.981" cy="231.419" gradientTransform="matrix(-1 0 0 -2.063 287.962 708.894)" gradientUnits="userSpaceOnUse" r="193.443" xlink:href="#lg2"/><radialGradient id="SVGID_3_" cx="150.829" cy="201.752" gradientTransform="matrix(-1 0 0 -2.063 301.658 618.019)" gradientUnits="userSpaceOnUse" r="156.879"><stop offset="0" stop-color="#f1f9d8"/><stop offset=".5145" stop-color="#daefc8"/><stop offset="1" stop-color="#cbe7af"/></radialGradient><radialGradient id="SVGID_4_" cx="125.479" cy="200.704" gradientTransform="matrix(-1 0 0 -2.063 250.958 614.807)" gradientUnits="userSpaceOnUse" r="145.568" xlink:href="#lg1"/><linearGradient id="lg3"><stop offset="0" stop-color="#ddeafb"/><stop offset=".1335" stop-color="#d7e7fb"/><stop offset=".3124" stop-color="#c6ddfb"/><stop offset=".5163" stop-color="#aacdfb"/><stop offset=".5974" stop-color="#9dc6fb"/><stop offset="1" stop-color="#89aada"/></linearGradient><radialGradient id="SVGID_5_" cx="112.621" cy="145.604" gradientTransform="matrix(1 0 0 1.084 0 -12.289)" gradientUnits="userSpaceOnUse" r="466.357" xlink:href="#lg3"/><radialGradient id="SVGID_6_" cx="112.621" cy="141.516" gradientTransform="matrix(1 0 0 1.084 0 -11.944)" gradientUnits="userSpaceOnUse" r="436.15"><stop offset="0" stop-color="#bcdf95"/><stop offset=".5858" stop-color="#9cd06a"/><stop offset=".5981" stop-color="#9bd069"/><stop offset=".6741" stop-color="#96cb68"/><stop offset=".77" stop-color="#86bb63"/><stop offset=".8766" stop-color="#6ca15c"/><stop offset=".9902" stop-color="#487d53"/><stop offset="1" stop-color="#457a52"/></radialGradient><radialGradient id="SVGID_7_" cx="112.621" cy="176.337" gradientTransform="matrix(1 0 0 1.084 0 -14.883)" gradientUnits="userSpaceOnUse" r="395.674"><stop offset="0" stop-color="#daefc8"/><stop offset=".1542" stop-color="#d6edc2"/><stop offset=".3607" stop-color="#cce8b1"/><stop offset=".5962" stop-color="#bcdf95"/><stop offset=".5974" stop-color="#bcdf95"/><stop offset="1" stop-color="#80bc93"/></radialGradient><radialGradient id="SVGID_8_" cx="112.621" cy="178.91" gradientTransform="matrix(1 0 0 1.084 0 -15.1)" gradientUnits="userSpaceOnUse" r="426.326" xlink:href="#lg3"/><radialGradient id="SVGID_9_" cx="351.242" cy="756.124" gradientTransform="matrix(.931 0 0 .112 -75.044 351.765)" gradientUnits="userSpaceOnUse" r="263.858"><stop offset="0" stop-color="#cbe2ff"/><stop offset=".1435" stop-color="#d6e8ff"/><stop offset=".4962" stop-color="#ecf4ff"/><stop offset=".8982" stop-color="#fff"/></radialGradient><linearGradient id="lg4"><stop offset="0" stop-color="#cbe7af"/><stop offset=".2362" stop-color="#c8e5a9"/><stop offset=".5521" stop-color="#bee098"/><stop offset=".5974" stop-color="#bcdf95"/><stop offset="1" stop-color="#80bc93"/></linearGradient><radialGradient id="SVGID_10_" cx="175.488" cy="164.121" gradientTransform="matrix(0 1 -1.031 0 344.659 -11.368)" gradientUnits="userSpaceOnUse" r="30.858" xlink:href="#lg4"/><radialGradient id="SVGID_11_" cx="75.323" cy="170.51" gradientTransform="matrix(0 1 -1.031 0 251.08 95.187)" gradientUnits="userSpaceOnUse" r="30.858" xlink:href="#lg2"/><radialGradient id="SVGID_12_" cx="221.032" cy="167.325" gradientTransform="matrix(0 1 -1.031 0 393.506 -53.707)" gradientUnits="userSpaceOnUse" r="21.363" xlink:href="#lg4"/><radialGradient id="SVGID_13_" cx="150.159" cy="134.968" gradientTransform="matrix(0 1 -1.031 0 289.281 -15.191)" gradientUnits="userSpaceOnUse" r="18.048" xlink:href="#lg4"/><radialGradient id="SVGID_14_" cx="97.641" cy="138.896" gradientTransform="matrix(0 1 -1.031 0 240.812 41.255)" gradientUnits="userSpaceOnUse" r="18.048" xlink:href="#lg2"/><radialGradient id="SVGID_15_" cx="395.49" cy="169.541" gradientTransform="matrix(0 1 -1.031 0 570.248 -225.949)" gradientUnits="userSpaceOnUse" r="18.048" xlink:href="#lg4"/><radialGradient id="SVGID_16_" cx="249.225" cy="144.665" gradientTransform="matrix(0 1 -1.031 0 398.341 -104.56)" gradientUnits="userSpaceOnUse" r="29.136" xlink:href="#lg4"/><radialGradient id="SVGID_17_" cx="364.586" cy="167.151" gradientTransform="matrix(0 1 -1.031 0 536.88 -197.435)" gradientUnits="userSpaceOnUse" r="40.608" xlink:href="#lg4"/><radialGradient id="SVGID_18_" cx="310.737" cy="159.769" gradientTransform="matrix(0 1 -1.031 0 475.422 -150.969)" gradientUnits="userSpaceOnUse" r="21.067" xlink:href="#lg4"/><radialGradient id="SVGID_19_" cx="293.525" cy="132.229" gradientTransform="matrix(0 1 -1.031 0 429.822 -161.296)" gradientUnits="userSpaceOnUse" r="19.052" xlink:href="#lg4"/><radialGradient id="SVGID_20_" cx="416.291" cy="140.913" gradientTransform="matrix(0 1 -1.031 0 561.54 -275.378)" gradientUnits="userSpaceOnUse" r="24.094" xlink:href="#lg4"/><radialGradient id="SVGID_21_" cx="458.984" cy="144.322" gradientTransform="matrix(0 1 -1.031 0 607.746 -314.662)" gradientUnits="userSpaceOnUse" r="19.052" xlink:href="#lg4"/><radialGradient id="SVGID_22_" cx="281.287" cy="168.559" gradientTransform="matrix(0 1 -1.031 0 455.032 -112.728)" gradientUnits="userSpaceOnUse" r="30.116" xlink:href="#lg4"/><radialGradient id="SVGID_23_" cx="438.204" cy="178.29" gradientTransform="matrix(0 1 -1.031 0 621.98 -259.914)" gradientUnits="userSpaceOnUse" r="30.116" xlink:href="#lg4"/><g><path d="m144.685 105.745-9.569-64.482h-75.902l-8.863 43.867c-1.66 8.218-3.187 16.455-4.581 24.71l94.334 20.615c1.394-8.255 2.921-16.492 4.581-24.71z" fill="url(#SVGID_1_)"/><path d="m121.672 109.84h-75.902c-4.333 25.66-7.379 51.482-9.138 77.37l102.655 26.153c1.759-25.888-21.948-77.863-17.615-103.523z" fill="url(#SVGID_2_)"/><path d="m36.632 187.21c-4.727 69.58-.154 139.636 13.719 208.296l101.468 16.185c-13.873-68.66-44.012-154.901-39.285-224.481z" fill="url(#SVGID_3_)"/><path d="m50.351 395.506c5.156 25.518 27.582 43.866 53.616 43.866h75.902l-53.616-43.867z" fill="url(#SVGID_4_)"/><path d="m126.253 395.506c5.156 25.518 27.582 43.866 53.616 43.866h228.164c26.034 0 48.46-18.348 53.616-43.866l-172.388-5.609z" fill="url(#SVGID_5_)"/><path d="m126.253 395.506h335.396c13.873-68.66 18.446-138.716 13.719-208.296l-186.107-35.961-176.727 35.961c-4.727 69.58-.154 139.635 13.719 208.296z" fill="url(#SVGID_6_)"/><path d="m121.672 109.84c-4.333 25.66-7.379 51.482-9.138 77.37h362.834c-1.759-25.888-4.805-51.71-9.138-77.37l-172.279-23.981z" fill="url(#SVGID_7_)"/><path d="m461.649 85.13-8.863-43.867h-317.67l-8.863 43.867c-1.66 8.218-3.187 16.455-4.581 24.71h344.558c-1.394-8.254-2.921-16.492-4.581-24.71z" fill="url(#SVGID_8_)"/><path d="m256 470.736c141.385 0 256-14.042 256-31.364h-512c0 17.322 114.615 31.364 256 31.364z" fill="url(#SVGID_9_)"/><circle cx="166.129" cy="160.082" fill="url(#SVGID_10_)" r="11.012"/><circle cx="61.306" cy="161.601" fill="url(#SVGID_11_)" r="11.012"/><circle cx="214.553" cy="164.529" fill="url(#SVGID_12_)" r="7.624"/><circle cx="144.685" cy="132.607" fill="url(#SVGID_13_)" r="6.441"/><circle cx="92.168" cy="136.534" fill="url(#SVGID_14_)" r="6.441"/><circle cx="388.181" cy="162.944" fill="url(#SVGID_15_)" r="6.441"/><circle cx="240.388" cy="140.852" fill="url(#SVGID_16_)" r="10.397"/><circle cx="348.882" cy="155.343" fill="url(#SVGID_17_)" r="14.491"/><circle cx="304.348" cy="157.012" fill="url(#SVGID_18_)" r="7.518"/><circle cx="287.747" cy="129.736" fill="url(#SVGID_19_)" r="6.799"/><circle cx="404.325" cy="132.254" fill="url(#SVGID_20_)" r="8.598"/><circle cx="447.064" cy="136.534" fill="url(#SVGID_21_)" r="6.799"/><circle cx="272.153" cy="164.618" fill="url(#SVGID_22_)" r="10.747"/><circle cx="421.871" cy="166.09" fill="url(#SVGID_23_)" r="10.747"/></g></svg>